# xmcd CD database file
#
# Track frame offsets:
#	150
#	13649
#	27246
#	39004
#	50459
#	63610
#	78810
#	90871
#	103798
#	116418
#	133793
#	144340
#	163023
#	182565
#	196097
#	212704
#	230043
#	244757
#	255773
#	277652
#
# Disc length: 3957 seconds
#
# Revision: 0
# Processed by: cddbd v1.5.1PL0 Copyright (c) Steve Scherf et al.
# Submitted via: CDex 1.51
#
DISCID=f80f7314
DTITLE=Various (compilation) - Triplestand Procuctions Volume 2
DYEAR=2005
DGENRE=Country
TTITLE0=8 Beers An Hour/Aaron Solinger
TTITLE1=Beer Bottle Brown/Martin Farmer
TTITLE2=The Best Years/Mark La Forme
TTITLE3=Come Away/Evelyn Conner
TTITLE4=Daddy's Run Down Farm/Jack Gordon
TTITLE5=Different Kinds Of Things/Cary Rutledge
TTITLE6=Drive The Blues Away/Jason McAlister
TTITLE7=Freedom Sound/Jonathon David
TTITLE8=Glory Train/Joe Hummer
TTITLE9=Heavan Help Both Of Us/Melissa Duval
TTITLE10=I Had The Blues Before Jesus/Billy Greene
TTITLE11=I Should Be Laughing/Laurelyn Carter
TTITLE12=Make An Angel Sing/Derek McCorkell
TTITLE13=Teach Me How To Love Again/Dave Brooks
TTITLE14=Temporarily Yours/Bird and Tines
TTITLE15=The Picture In The Mirror/Dwaine Messer
TTITLE16=Two Sides To Every Song/Sean Patrick McGraw
TTITLE17=When I'm With You/Derek McCorkell
TTITLE18=Where An Angel Falls/Darren Kolbe
TTITLE19=You Remain/Ali Matthews
EXTD=YEAR: 2005
EXTT0=
EXTT1=
EXTT2=
EXTT3=
EXTT4=
EXTT5=
EXTT6=
EXTT7=
EXTT8=
EXTT9=
EXTT10=
EXTT11=
EXTT12=
EXTT13=
EXTT14=
EXTT15=
EXTT16=
EXTT17=
EXTT18=
EXTT19=
PLAYORDER=
